<svg xmlns="http://www.w3.org/2000/svg" xmlns:xlink="http://www.w3.org/1999/xlink" viewBox="0 0 603.88 125.74"><defs><style>.cls-1{fill:none;}.cls-2{clip-path:url(#clip-path);}.cls-3{fill:#221f1f;}</style><clipPath id="clip-path" transform="translate(0 0)"><rect class="cls-1" width="603.88" height="125.74"/></clipPath></defs><g id="Layer_2" data-name="Layer 2"><g id="Layer_1-2" data-name="Layer 1"><g id="Artwork_5" data-name="Artwork 5"><g class="cls-2"><polygon class="cls-3" points="71.27 0 63.62 13.31 103.08 81.63 119.62 81.63 71.27 0 71.27 0"/><polygon class="cls-3" points="94.21 81.63 79.5 81.63 51.8 33.88 59.44 20.59 94.21 81.63"/><polygon class="cls-3" points="0 124.01 15.9 124.01 55.12 56.72 46.57 42.97 0 124.01"/><polygon class="cls-3" points="67.02 77.91 39.51 124.01 24.76 124.01 59.21 64.52 67.02 77.91"/><polygon class="cls-3" points="69.25 89.44 61.68 102.82 132.17 102.82 124.24 89.44 69.25 89.44"/><polygon class="cls-3" points="49.7 124.01 57.27 110.62 136.74 110.62 144.72 124.01 49.7 124.01"/><path class="cls-3" d="M261.24,123.23,249.41,94.54H202.32L190.5,123.23H167.63L217.05,6.94h18.41l49.42,116.29ZM226,35.82,208.71,78.07H243Z" transform="translate(0 0)"/><g class="cls-2"><path class="cls-3" d="M346.51,125.74c-33.53,0-62.41-23.06-62.41-60.66S313,4.42,346.51,4.42c15.31,0,30.81,4.46,40.5,11.82V37.75a56.55,56.55,0,0,0-38-14.34c-23.07,0-40.12,15.51-40.12,41.67,0,26,17,41.67,40.12,41.67a56.55,56.55,0,0,0,38-14.34v21.51c-9.69,7.37-25.19,11.82-40.5,11.82" transform="translate(0 0)"/><path class="cls-3" d="M440.5,125.55c-19.38,0-33.34-7.56-41.29-14.54l5.43-18.6c7.75,7.36,20,15.7,35.86,15.7,11.63,0,20.54-5.82,20.54-16.09,0-9.69-5.43-14.34-24.42-19.38-24.42-6-34.11-19-34.11-35.66,0-19,15.12-32.75,40.12-32.75,14.34,0,27.13,5.42,34.88,11.43l-5,16.47c-8.15-5.42-19.77-10.07-30.05-10.07-11.43,0-18.21,5-18.21,13.37,0,6.78,4.26,11.82,20,15.89,27.13,6.79,38.76,18.22,38.76,38.38,0,25-20.54,35.85-42.44,35.85" transform="translate(0 0)"/><path class="cls-3" d="M580.23,123.23,568.41,94.54h-47.1l-11.82,28.69H486.62L536,6.94h18.42l49.42,116.29ZM545,35.82,527.71,78.07H562Z" transform="translate(0 0)"/></g></g></g></g></g></svg>